<svg xmlns="http://www.w3.org/2000/svg" width="15" height="15" viewBox="0 0 15 15" fill="none">
<path fill-rule="evenodd" clip-rule="evenodd" d="M0.25 4C0.25 2.48122 1.48122 1.25 3 1.25H9.5C11.0188 1.25 12.25 2.48122 12.25 4V5C12.25 5.41421 11.9142 5.75 11.5 5.75C11.0858 5.75 10.75 5.41421 10.75 5V4C10.75 3.30964 10.1904 2.75 9.5 2.75H3C2.30964 2.75 1.75 3.30964 1.75 4V8.5C1.75 9.19036 2.30964 9.75 3 9.75H6C6.41421 9.75 6.75 10.0858 6.75 10.5C6.75 10.9142 6.41421 11.25 6 11.25H3C1.48122 11.25 0.25 10.0188 0.25 8.5V4ZM11.5 7.25C11.9142 7.25 12.25 7.58579 12.25 8V9.75H14C14.4142 9.75 14.75 10.0858 14.75 10.5C14.75 10.9142 14.4142 11.25 14 11.25H12.25V13C12.25 13.4142 11.9142 13.75 11.5 13.75C11.0858 13.75 10.75 13.4142 10.75 13V11.25H9C8.58579 11.25 8.25 10.9142 8.25 10.5C8.25 10.0858 8.58579 9.75 9 9.75H10.75V8C10.75 7.58579 11.0858 7.25 11.5 7.25Z" fill="#ffffff"/>
</svg>