<?xml version="1.0" encoding="UTF-8"?>
<svg height="600" width="800" xmlns="http://www.w3.org/2000/svg" xmlns:xlink="http://www.w3.org/1999/xlink">
    <g id="Notes" font-family="'LucidaGrande', 'Lucida Grande', sans-serif" font-size="13">
        <rect fill="white" height="600.0" width="800.0" x="0.0" y="0.0" />
        <g font-size="13">
            <text x="18.0" y="176.0">Small</text>
            <text x="18.0" y="376.0">Medium</text>
            <text x="18.0" y="576.0">Large</text>
        </g>
        <g font-size="9">
            <text x="250.0" y="30.0">Ultralight</text>
            <text x="450.0" y="30.0">Regular</text>
            <text x="650.0" y="30.0">Black</text>
            <text id="template-version" fill="#505050" text-anchor="end" x="785.0" y="575.0">Template v.3.0</text>
            <a href="https://wangchujiang.com/#/app">
                <text fill="#505050" text-anchor="end" x="785.0" y="590.0">https://wangchujiang.com/#/app</text>
            </a>
        </g>
    </g>
    <g id="Guides" stroke="rgb(39, 170, 225)" stroke-width="0.5">
        <path id="Capline-S" d="M18,76 l800,0" />
        <path id="H-reference" d="M85,145.755 L87.685,145.755 L113.369,79.287 L114.052,79.287 L114.052,76 L112.148,76 L85,145.755 Z M95.693,121.536 L130.996,121.536 L130.263,119.313 L96.474,119.313 L95.693,121.536 Z M139.15,145.755 L141.787,145.755 L114.638,76 L113.466,76 L113.466,79.287 L139.15,145.755 Z" stroke="none" />
        <path id="Baseline-S" d="M18,146 l800,0" />
        <path id="left-margin-Ultralight-S" d="M214.4,56 l0,110" />
        <path id="right-margin-Ultralight-S" d="M315.6,56 l0,110" />
        <path id="left-margin-Regular-S" d="M414.4,56 l0,110" />
        <path id="right-margin-Regular-S" d="M515.6,56 l0,110" />
        <path id="left-margin-Black-S" d="M614.4,56 l0,110" />
        <path id="right-margin-Black-S" d="M715.6,56 l0,110" />
        <path id="Capline-M" d="M18,276 l800,0" />
        <path id="Baseline-M" d="M18,346 l800,0" />
        <path id="Capline-L" d="M18,476 l800,0" />
        <path id="Baseline-L" d="M18,546 l800,0" />
    </g>
    <g id="Symbols">
        <g id="Ultralight-S">
            <path d="M224.4,91.4 C224.4,82.895 231.295,76 239.8,76 L276.2,76 C284.705,76 291.6,82.895 291.6,91.4 L291.6,97 C291.6,99.32 289.72,101.2 287.4,101.2 C285.08,101.2 283.2,99.32 283.2,97 L283.2,91.4 C283.2,87.534 280.066,84.4 276.2,84.4 L239.8,84.4 C235.934,84.4 232.8,87.534 232.8,91.4 L232.8,116.6 C232.8,120.466 235.934,123.6 239.8,123.6 L256.6,123.6 C258.92,123.6 260.8,125.48 260.8,127.8 C260.8,130.12 258.92,132 256.6,132 L239.8,132 C231.295,132 224.4,125.105 224.4,116.6 L224.4,91.4 Z M287.4,109.6 C289.72,109.6 291.6,111.48 291.6,113.8 L291.6,123.6 L301.4,123.6 C303.72,123.6 305.6,125.48 305.6,127.8 C305.6,130.12 303.72,132 301.4,132 L291.6,132 L291.6,141.8 C291.6,144.12 289.72,146 287.4,146 C285.08,146 283.2,144.12 283.2,141.8 L283.2,132 L273.4,132 C271.08,132 269.2,130.12 269.2,127.8 C269.2,125.48 271.08,123.6 273.4,123.6 L283.2,123.6 L283.2,113.8 C283.2,111.48 285.08,109.6 287.4,109.6 Z" />
        </g>
        <g id="Regular-S">
            <path d="M424.4,91.4 C424.4,82.895 431.295,76 439.8,76 L476.2,76 C484.705,76 491.6,82.895 491.6,91.4 L491.6,97 C491.6,99.32 489.72,101.2 487.4,101.2 C485.08,101.2 483.2,99.32 483.2,97 L483.2,91.4 C483.2,87.534 480.066,84.4 476.2,84.4 L439.8,84.4 C435.934,84.4 432.8,87.534 432.8,91.4 L432.8,116.6 C432.8,120.466 435.934,123.6 439.8,123.6 L456.6,123.6 C458.92,123.6 460.8,125.48 460.8,127.8 C460.8,130.12 458.92,132 456.6,132 L439.8,132 C431.295,132 424.4,125.105 424.4,116.6 L424.4,91.4 Z M487.4,109.6 C489.72,109.6 491.6,111.48 491.6,113.8 L491.6,123.6 L501.4,123.6 C503.72,123.6 505.6,125.48 505.6,127.8 C505.6,130.12 503.72,132 501.4,132 L491.6,132 L491.6,141.8 C491.6,144.12 489.72,146 487.4,146 C485.08,146 483.2,144.12 483.2,141.8 L483.2,132 L473.4,132 C471.08,132 469.2,130.12 469.2,127.8 C469.2,125.48 471.08,123.6 473.4,123.6 L483.2,123.6 L483.2,113.8 C483.2,111.48 485.08,109.6 487.4,109.6 Z" />
        </g>
        <g id="Black-S">
            <path d="M624.4,91.4 C624.4,82.895 631.295,76 639.8,76 L676.2,76 C684.705,76 691.6,82.895 691.6,91.4 L691.6,97 C691.6,99.32 689.72,101.2 687.4,101.2 C685.081,101.2 683.2,99.32 683.2,97 L683.2,91.4 C683.2,87.534 680.066,84.4 676.2,84.4 L639.8,84.4 C635.934,84.4 632.8,87.534 632.8,91.4 L632.8,116.6 C632.8,120.466 635.934,123.6 639.8,123.6 L656.6,123.6 C658.92,123.6 660.8,125.48 660.8,127.8 C660.8,130.12 658.92,132 656.6,132 L639.8,132 C631.295,132 624.4,125.105 624.4,116.6 L624.4,91.4 Z M687.4,109.6 C689.72,109.6 691.6,111.48 691.6,113.8 L691.6,123.6 L701.4,123.6 C703.72,123.6 705.6,125.48 705.6,127.8 C705.6,130.12 703.72,132 701.4,132 L691.6,132 L691.6,141.8 C691.6,144.12 689.72,146 687.4,146 C685.081,146 683.2,144.12 683.2,141.8 L683.2,132 L673.4,132 C671.08,132 669.2,130.12 669.2,127.8 C669.2,125.48 671.08,123.6 673.4,123.6 L683.2,123.6 L683.2,113.8 C683.2,111.48 685.081,109.6 687.4,109.6 Z" />
        </g>
    </g>
</svg>